<svg width="51" height="50" viewBox="0 0 51 50" fill="none" xmlns="http://www.w3.org/2000/svg">
<path d="M35.8128 29.375C33.973 29.375 32.282 30.0113 30.9471 31.0754L22.6068 25.8627C22.8538 24.7455 22.8538 23.5878 22.6068 22.4705L30.9471 17.2578C32.282 18.322 33.973 18.9583 35.8128 18.9583C40.1275 18.9583 43.6253 15.4605 43.6253 11.1458C43.6253 6.83112 40.1275 3.33331 35.8128 3.33331C31.4981 3.33331 28.0003 6.83112 28.0003 11.1458C28.0003 11.7283 28.0646 12.2957 28.1855 12.8419L19.8452 18.0546C18.5103 16.9905 16.8193 16.3541 14.9795 16.3541C10.6648 16.3541 7.16699 19.8519 7.16699 24.1666C7.16699 28.4813 10.6648 31.9791 14.9795 31.9791C16.8193 31.9791 18.5103 31.3428 19.8452 30.2787L28.1855 35.4914C28.0623 36.0484 28.0002 36.6171 28.0003 37.1875C28.0003 41.5022 31.4981 45 35.8128 45C40.1275 45 43.6253 41.5022 43.6253 37.1875C43.6253 32.8728 40.1275 29.375 35.8128 29.375Z" fill="#666666"/>
</svg>
