<svg width="120" height="120" viewBox="0 0 120 120" fill="none" xmlns="http://www.w3.org/2000/svg">
<path d="M0 59.6675C34.5245 54.4137 54.4136 34.5245 59.6674 0C64.9211 34.5245 84.8102 54.4137 119.335 59.6675C84.8102 64.9212 64.9211 84.8104 59.6674 119.335C54.4136 84.8104 34.5245 64.9212 0 59.6675Z" fill="url(#paint0_linear_1683_9107)"/>
<path d="M0 59.6675C34.5245 54.4137 54.4136 34.5245 59.6674 0C64.9211 34.5245 84.8102 54.4137 119.335 59.6675C84.8102 64.9212 64.9211 84.8104 59.6674 119.335C54.4136 84.8104 34.5245 64.9212 0 59.6675Z" fill="url(#paint1_linear_1683_9107)" fill-opacity="0.2"/>
<defs>
<linearGradient id="paint0_linear_1683_9107" x1="119" y1="-3.20825e-06" x2="8.73015e-07" y2="119" gradientUnits="userSpaceOnUse">
<stop offset="0.25" stop-color="white" stop-opacity="0.5"/>
<stop offset="0.3" stop-color="#EEB3CF" stop-opacity="0.8"/>
<stop offset="0.5" stop-color="#88D0EE" stop-opacity="0.8"/>
<stop offset="0.7" stop-color="#A3D4BC" stop-opacity="0.8"/>
<stop offset="0.75" stop-color="white" stop-opacity="0.5"/>
</linearGradient>
<linearGradient id="paint1_linear_1683_9107" x1="0" y1="0" x2="119" y2="119" gradientUnits="userSpaceOnUse">
<stop offset="0.3" stop-color="white"/>
<stop offset="0.7" stop-color="white"/>
</linearGradient>
</defs>
</svg>
