<svg width="1440" height="655" viewBox="0 0 1440 655" fill="none" xmlns="http://www.w3.org/2000/svg">
<g opacity="0.3">
<path d="M-306.714 758C-313.648 717.25 -291.552 670.524 -264.257 625.447C-191.107 504.64 -78.765 385.717 55.8282 275.706C131.447 213.9 215.132 154.121 311.473 104.581C407.814 55.0413 510.006 -3.31523 609.322 1.25219C708.639 5.81961 735.227 85.7284 738.589 156.139C741.951 226.55 617.279 475.341 756.98 460.595C820.334 453.908 894.259 428.91 1017.87 274.989C1125.56 140.879 1247.37 47.1708 1321.75 79.4035C1463.27 140.73 1327.6 225.296 1359.73 283.233C1363.39 289.833 1368.66 296.112 1378.26 299.258C1399.15 306.108 1432.09 296.226 1458.98 285.203C1531.55 255.455 1596.75 214.433 1644 168.798" stroke="url(#paint0_linear_613_9771)" stroke-miterlimit="10"/>
<path d="M-292.548 757.421C-293.36 711.493 -274.22 662.669 -238.907 611.346C-163.285 501.438 -55.6396 377.994 76.508 271.276C151.583 211.207 234.446 153.538 328.614 106.383C422.897 59.3246 521.493 4.28595 617.111 10.0473C712.768 15.7021 737.904 94.279 740.43 163.661C743.003 232.962 621.57 475.618 757.744 461.902C819.489 455.676 892.506 431.614 1015.74 281.402C1123.74 150.3 1243.26 57.6089 1318.59 88.3541C1458.46 145.437 1329.35 230.415 1362.84 285.748C1367.19 292.933 1372.84 299.75 1382.92 303.263C1403.24 310.348 1435.3 300.552 1461.58 289.888C1532.52 261.111 1596.1 220.716 1641.94 176.084" stroke="url(#paint1_linear_613_9771)" stroke-width="0.983871" stroke-miterlimit="10"/>
<path d="M-278.383 756.841C-273.073 705.735 -257.156 654.99 -213.556 597.244C-136.774 495.549 -32.6803 369.443 97.1879 266.845C171.625 208.038 253.761 152.953 345.756 108.183C437.98 63.6063 532.98 11.8874 624.9 18.8427C716.898 25.5849 740.581 102.829 742.271 171.182C744.054 239.374 625.862 475.894 758.509 463.207C818.644 457.443 890.754 434.318 1013.61 287.814C1121.92 159.721 1239.13 68.0698 1315.43 97.304C1453.64 150.254 1331.37 235.093 1365.95 288.261C1371.01 296.029 1377.01 303.386 1387.57 307.268C1407.33 314.532 1438.52 304.876 1464.18 294.572C1533.49 266.766 1595.46 226.998 1639.87 183.37" stroke="url(#paint2_linear_613_9771)" stroke-width="0.967742" stroke-miterlimit="10"/>
<path d="M-264.218 756.261C-252.785 699.979 -240.271 647.319 -188.206 583.143C-110.988 487.961 -9.62897 361.335 117.867 262.415C191.719 205.116 273.076 152.37 362.897 109.985C453.063 67.8897 544.466 19.4897 632.688 27.6388C721.027 35.4685 743.186 111.382 744.112 178.702C745.034 245.79 630.154 476.171 759.273 464.514C817.798 459.212 888.807 436.363 1011.47 294.227C1119.93 168.558 1235 78.5571 1312.28 106.255C1448.79 155.179 1333.55 239.442 1369.06 290.776C1374.84 299.119 1381.19 307.018 1392.23 311.274C1411.42 318.67 1441.73 309.202 1466.78 299.257C1534.46 272.422 1594.81 233.28 1637.81 190.655" stroke="url(#paint3_linear_613_9771)" stroke-width="0.951613" stroke-miterlimit="10"/>
<path d="M-250.052 755.681C-232.497 694.221 -223.512 639.568 -162.855 569.042C-85.631 479.254 13.4296 353.245 138.548 257.983C211.816 202.199 292.391 151.787 380.04 111.786C468.147 72.1725 555.954 27.0903 640.477 36.4333C725.157 45.3504 745.842 119.929 745.953 186.223C746.064 252.199 634.446 476.446 760.037 465.82C816.954 460.979 887.003 438.87 1009.34 300.64C1118.06 177.8 1230.85 89.0713 1309.12 115.205C1443.91 160.209 1335.86 243.538 1372.18 293.289C1378.68 302.195 1385.36 310.646 1396.89 315.278C1415.52 322.765 1444.95 313.526 1469.38 303.942C1535.43 278.077 1594.17 239.562 1635.74 197.941" stroke="url(#paint4_linear_613_9771)" stroke-width="0.935484" stroke-miterlimit="10"/>
<path d="M-235.887 755.102C-212.21 688.465 -206.856 631.686 -137.504 554.941C-60.5475 469.779 36.4937 345.177 159.227 253.554C231.916 199.29 311.667 150.855 397.181 113.589C483.191 76.1052 567.44 34.6928 648.265 45.2297C729.287 55.2342 748.498 128.474 747.794 193.745C747.095 258.607 638.737 476.722 760.801 467.126C816.108 462.748 885.205 441.39 1007.21 307.053C1116.2 187.052 1226.69 99.6153 1305.97 124.155C1439.02 165.343 1338.24 247.441 1375.29 295.804C1382.53 305.258 1389.53 314.272 1401.54 319.285C1419.61 326.826 1448.16 317.852 1471.98 308.627C1536.4 283.734 1593.52 245.845 1633.68 205.226" stroke="url(#paint5_linear_613_9771)" stroke-width="0.919355" stroke-miterlimit="10"/>
<path d="M-221.722 754.523C-191.923 682.708 -190.283 623.636 -112.154 540.839C-35.6444 459.759 59.5643 337.13 179.906 249.124C252.018 196.388 330.976 150.206 414.322 115.389C498.269 80.3214 578.914 42.6294 656.053 54.0257C733.404 65.4531 751.155 137.017 749.635 201.267C748.126 265.012 643.028 476.999 761.565 468.433C815.263 464.516 883.413 443.923 1005.08 313.465C1114.34 196.314 1222.52 110.192 1302.81 133.105C1434.12 170.58 1340.69 251.191 1378.4 298.319C1386.39 308.303 1393.7 317.893 1406.2 323.29C1423.71 330.853 1451.38 322.177 1474.59 313.312C1537.37 289.39 1592.88 252.127 1631.61 212.513" stroke="url(#paint6_linear_613_9771)" stroke-width="0.903226" stroke-miterlimit="10"/>
<path d="M-207.556 753.943C-171.635 676.951 -173.784 615.394 -86.8031 526.738C-10.8642 449.336 82.6426 329.104 200.587 244.692C272.126 193.492 350.287 149.56 431.464 117.191C513.348 84.5399 590.397 50.2881 663.843 62.8203C737.529 75.3936 753.815 145.557 751.477 208.788C749.161 271.415 647.321 477.275 762.33 469.739C814.419 466.283 881.627 446.468 1002.95 319.878C1112.49 205.585 1218.35 120.802 1299.65 142.055C1429.19 175.916 1343.18 254.818 1381.51 300.832C1390.25 311.329 1397.87 321.509 1410.85 327.295C1427.82 334.852 1454.6 326.501 1477.19 317.995C1538.34 295.044 1592.23 258.41 1629.55 219.799" stroke="url(#paint7_linear_613_9771)" stroke-width="0.887097" stroke-miterlimit="10"/>
<path d="M-193.391 753.363C-151.348 671.194 -157.354 606.939 -61.4529 512.636C13.8276 438.61 105.726 321.102 221.266 240.262C292.235 190.607 369.598 148.915 448.605 118.992C528.428 88.7606 601.878 57.9489 671.631 71.6161C741.653 85.3361 756.475 154.095 753.317 216.31C750.196 277.816 651.612 477.551 763.094 471.045C813.573 468.052 879.847 449.028 1000.82 326.29C1110.65 214.868 1214.16 131.449 1296.5 151.006C1424.25 181.35 1345.71 258.346 1384.62 303.347C1394.12 314.337 1402.03 325.121 1415.51 331.3C1431.92 338.826 1457.81 330.826 1479.79 322.68C1539.31 300.7 1591.59 264.691 1627.49 227.084" stroke="url(#paint8_linear_613_9771)" stroke-width="0.870968" stroke-miterlimit="10"/>
<path d="M-179.225 752.783C-131.059 665.436 -140.986 598.253 -36.1017 498.535C38.4574 427.648 128.818 313.123 241.946 235.83C312.349 187.729 388.911 148.273 465.747 120.793C543.509 92.9829 613.358 65.6088 679.42 80.4103C745.777 95.278 759.137 162.632 755.159 223.83C751.233 284.214 655.904 477.826 763.858 472.351C812.729 469.819 878.073 451.602 998.693 332.702C1108.8 224.161 1209.97 142.134 1293.34 159.955C1419.3 186.879 1348.26 261.791 1387.73 305.859C1398 317.325 1406.2 328.727 1420.17 335.305C1436.03 342.777 1461.03 335.151 1482.39 327.364C1540.28 306.355 1590.94 270.973 1625.42 234.369" stroke="url(#paint9_linear_613_9771)" stroke-width="0.854839" stroke-miterlimit="10"/>
<path d="M-165.06 752.204C-110.772 659.68 -124.681 589.318 -10.7515 484.434C63.0405 416.5 151.915 305.171 262.626 231.401C332.466 184.864 408.223 147.634 482.889 122.595C558.59 97.2087 624.836 73.2716 687.208 89.2066C749.898 105.223 761.801 171.166 757 231.351C752.272 290.612 660.196 478.104 764.622 473.658C811.883 471.588 876.304 454.191 996.562 339.115C1106.97 233.468 1205.76 152.86 1290.18 168.905C1414.34 192.502 1350.83 265.17 1390.84 308.375C1401.89 320.297 1410.37 332.33 1424.82 339.311C1440.14 346.71 1464.24 339.476 1484.99 332.049C1541.25 312.011 1590.29 277.256 1623.36 241.656" stroke="url(#paint10_linear_613_9771)" stroke-width="0.83871" stroke-miterlimit="10"/>
<path d="M-150.895 751.624C-90.485 653.922 -108.434 580.116 14.5987 470.332C87.5902 405.2 175.019 297.243 283.305 226.969C352.586 182.007 427.537 146.997 500.03 124.395C573.673 101.435 636.313 80.9342 694.996 98.0018C754.018 115.168 764.467 179.699 758.84 238.872C753.312 297.008 664.487 478.379 765.386 474.963C811.038 473.355 874.54 456.795 994.431 345.527C1105.13 242.786 1201.56 163.63 1287.03 177.855C1409.37 198.214 1353.41 268.49 1393.96 310.888C1405.77 323.247 1414.54 335.925 1429.48 343.316C1444.25 350.623 1467.46 343.801 1487.59 336.733C1542.22 317.667 1589.65 283.537 1621.29 248.94" stroke="url(#paint11_linear_613_9771)" stroke-width="0.822581" stroke-miterlimit="10"/>
<path d="M-136.729 751.043C-70.1968 648.164 -92.2452 570.632 39.9499 456.23C112.117 393.777 198.131 289.344 303.985 222.539C372.711 179.165 446.854 146.364 517.172 126.197C588.758 105.667 647.789 88.5974 702.785 106.797C758.137 125.113 767.135 188.232 760.682 246.393C754.356 303.404 668.779 478.654 766.151 476.269C810.193 475.122 872.782 459.416 992.301 351.94C1103.31 252.119 1197.34 174.448 1283.87 186.805C1404.39 204.016 1356.01 271.76 1397.07 313.402C1409.67 326.179 1418.7 339.514 1434.13 347.321C1448.36 354.52 1470.67 348.126 1490.19 341.418C1543.19 323.323 1589 289.82 1619.23 256.226" stroke="url(#paint12_linear_613_9771)" stroke-width="0.806452" stroke-miterlimit="10"/>
<path d="M-122.563 750.464C-49.9096 642.408 -76.1145 560.85 65.3001 442.13C136.625 382.251 221.248 281.475 324.665 218.109C392.839 176.338 466.17 145.736 534.313 127.999C603.843 109.902 659.261 96.2628 710.574 115.593C762.252 135.061 769.806 196.766 762.523 253.916C755.401 309.8 673.071 478.932 766.915 477.576C809.348 476.892 871.029 462.054 990.171 358.353C1101.48 261.467 1193.12 185.314 1280.72 195.756C1399.4 209.905 1358.61 274.99 1400.18 315.917C1413.56 329.093 1422.87 343.097 1438.79 351.327C1452.48 358.404 1473.89 352.452 1492.79 346.104C1544.16 328.979 1588.36 296.103 1617.16 263.513" stroke="url(#paint13_linear_613_9771)" stroke-width="0.790323" stroke-miterlimit="10"/>
<path d="M-108.397 749.884C-29.6215 636.65 -60.0398 550.749 90.6513 428.027C161.123 370.636 244.373 273.632 345.345 213.677C412.971 173.522 485.488 145.111 551.455 129.8C618.93 114.14 670.731 103.927 718.363 124.388C766.365 145.009 772.479 205.297 764.364 261.436C756.449 316.195 677.363 479.207 767.679 478.881C808.504 478.658 869.281 464.707 988.041 364.765C1099.66 270.829 1188.9 196.231 1277.56 204.706C1394.41 215.875 1361.22 278.181 1403.29 318.43C1417.46 331.987 1427.04 346.67 1443.45 355.331C1456.59 362.273 1477.1 356.776 1495.4 350.788C1545.13 334.634 1587.71 302.384 1615.1 270.798" stroke="url(#paint14_linear_613_9771)" stroke-width="0.774194" stroke-miterlimit="10"/>
<path d="M-94.2324 749.305C-9.33429 630.893 -44.0227 540.316 116.001 413.927C185.613 358.947 267.504 265.823 366.024 209.248C433.106 170.726 504.807 144.49 568.597 131.601C634.017 118.383 682.196 111.592 726.151 133.184C770.474 154.956 775.154 213.83 766.205 268.958C757.499 322.591 681.654 479.484 768.443 480.189C807.658 480.427 867.536 467.379 985.91 371.178C1097.85 280.208 1185.24 192.791 1274.4 213.657C1388.7 240.402 1363.82 281.341 1406.4 320.945C1421.36 334.864 1431.21 350.236 1448.1 359.338C1460.71 366.132 1480.32 361.101 1498 355.473C1546.1 340.29 1587.07 308.667 1613.03 278.084" stroke="url(#paint15_linear_613_9771)" stroke-width="0.758065" stroke-miterlimit="10"/>
<path d="M-80.0674 748.724C10.9529 625.136 -28.0619 529.529 141.352 399.825C210.099 347.192 290.641 258.044 386.704 204.816C453.246 167.945 524.127 143.875 585.738 133.402C649.106 122.631 693.656 119.256 733.939 141.979C774.579 164.903 777.831 222.363 768.046 276.479C758.551 328.987 685.946 479.759 769.207 481.494C806.813 482.194 865.796 470.067 983.779 377.59C1096.04 289.601 1180.93 203.567 1271.25 222.605C1383.82 246.335 1366.44 284.472 1409.51 323.459C1425.27 337.721 1435.38 353.791 1452.76 363.342C1464.83 369.978 1483.53 365.426 1500.6 360.157C1547.07 345.945 1586.42 314.948 1610.97 285.369" stroke="url(#paint16_linear_613_9771)" stroke-width="0.741935" stroke-miterlimit="10"/>
<path d="M-65.9014 748.145C31.241 619.379 -12.1561 518.371 166.703 385.724C234.586 335.38 313.785 250.302 407.384 200.386C473.39 165.186 543.449 143.267 602.88 135.204C664.197 126.886 705.112 126.918 741.728 150.775C778.678 174.849 780.512 230.899 769.887 284.001C759.606 335.385 690.238 480.036 769.972 482.801C805.968 483.963 864.06 472.775 981.65 384.003C1094.23 299.014 1176.62 214.525 1268.09 231.556C1378.94 252.195 1369.05 287.578 1412.62 325.973C1429.18 340.561 1439.56 357.335 1457.41 367.348C1468.95 373.816 1486.75 369.75 1503.2 364.841C1548.04 351.601 1585.78 321.231 1608.91 292.655" stroke="url(#paint17_linear_613_9771)" stroke-width="0.725806" stroke-miterlimit="10"/>
<path d="M-51.7363 747.566C51.5282 613.622 3.69316 506.821 192.053 371.622C259.074 323.517 336.934 242.593 428.063 195.956C493.536 162.449 562.772 142.666 620.021 137.006C679.289 131.147 716.559 134.575 749.517 159.57C782.77 184.79 783.194 239.434 771.728 291.521C760.664 341.784 694.529 480.312 770.735 484.107C805.123 485.731 862.326 475.501 979.519 390.416C1092.42 308.443 1172.3 225.673 1264.94 240.507C1374.06 257.981 1371.66 290.662 1415.74 328.488C1433.09 343.384 1443.73 360.866 1462.07 371.353C1473.07 377.643 1489.96 374.075 1505.8 369.526C1549.01 357.256 1585.13 327.514 1606.84 299.941" stroke="url(#paint18_linear_613_9771)" stroke-width="0.709677" stroke-miterlimit="10"/>
<path d="M-37.5703 746.986C71.8164 607.865 19.4885 494.86 217.404 357.521C283.568 311.608 360.089 234.921 448.743 191.525C513.688 159.734 582.096 142.071 637.163 138.806C694.382 135.414 727.999 142.224 757.306 168.366C786.854 194.722 785.88 247.973 773.57 299.042C761.724 348.186 698.821 480.589 771.5 485.413C804.278 487.499 860.597 478.245 977.389 396.828C1090.62 317.891 1167.97 237.021 1261.78 249.457C1369.19 263.696 1374.28 293.724 1418.85 331.001C1437.01 346.189 1447.91 364.382 1466.73 375.358C1477.19 381.462 1493.18 378.4 1508.4 374.211C1549.98 362.912 1584.49 333.795 1604.78 307.226" stroke="url(#paint19_linear_613_9771)" stroke-width="0.693548" stroke-miterlimit="10"/>
<path d="M-23.4053 746.406C92.1036 602.108 35.2287 482.467 242.754 343.421C308.068 299.659 383.249 227.288 469.423 187.095C533.842 157.048 601.422 139.557 654.305 140.608C709.475 141.705 739.426 149.858 765.094 177.162C790.926 204.641 788.567 256.516 775.41 306.564C762.785 354.591 703.113 480.865 772.264 486.719C803.433 489.267 858.87 481.01 975.258 403.241C1088.82 327.358 1163.65 248.58 1258.62 258.407C1364.31 269.343 1376.89 296.77 1421.96 333.516C1440.92 348.978 1452.09 367.882 1471.38 379.364C1481.32 385.275 1496.39 382.726 1511 378.896C1550.95 368.568 1583.84 340.078 1602.71 314.513" stroke="url(#paint20_linear_613_9771)" stroke-width="0.677419" stroke-miterlimit="10"/>
<path d="M-9.24023 745.827C112.391 596.351 50.9158 469.618 268.105 329.319C332.576 287.672 406.414 219.693 490.102 182.663C554 154.39 620.747 140.911 671.446 142.41C724.57 143.98 750.842 157.466 772.882 185.957C794.988 214.532 791.256 265.061 777.251 314.085C763.849 360.999 707.404 481.14 773.028 488.025C802.588 491.034 857.145 483.793 973.127 409.654C1087.03 336.845 1159.33 260.361 1255.47 267.358C1359.43 274.924 1379.5 299.797 1425.07 336.029C1444.84 351.75 1456.27 371.362 1476.04 383.369C1485.44 389.08 1499.61 387.051 1513.6 383.58C1551.92 374.224 1583.2 346.361 1600.65 321.799" stroke="url(#paint21_linear_613_9771)" stroke-width="0.66129" stroke-miterlimit="10"/>
<path d="M4.92578 745.247C132.679 590.594 66.5521 456.292 293.456 315.217C357.095 275.65 429.583 212.141 510.782 178.233C574.162 151.766 640.074 140.347 688.588 144.211C739.667 148.279 762.247 165.032 780.671 194.752C799.04 224.381 793.948 273.611 779.093 321.606C764.915 367.41 711.696 481.416 773.793 489.331C801.743 492.802 855.423 486.596 970.998 416.066C1085.23 346.352 1155.12 285.791 1252.31 276.306C1354.45 266.34 1382.11 302.811 1428.18 338.543C1448.76 354.506 1460.46 374.819 1480.7 387.374C1489.57 392.878 1502.82 391.375 1516.2 388.264C1552.9 379.879 1582.55 352.642 1598.59 329.083" stroke="url(#paint22_linear_613_9771)" stroke-width="0.645161" stroke-miterlimit="10"/>
<path d="M19.0908 744.668C152.966 584.837 82.1374 442.467 318.806 301.116C381.625 263.597 452.756 204.632 531.462 173.803C594.327 149.179 659.4 139.797 705.729 146.013C754.762 152.592 773.645 172.536 788.459 203.547C803.087 234.166 796.641 282.165 780.933 329.128C765.983 373.827 715.988 481.693 774.556 490.638C800.898 494.57 853.701 489.42 968.867 422.479C1083.44 355.881 1150.91 297.313 1249.15 285.257C1349.47 272.947 1384.72 305.811 1431.29 341.059C1452.69 357.247 1464.65 378.25 1485.35 391.38C1493.69 396.671 1506.04 395.701 1518.81 392.95C1553.87 385.535 1581.91 358.925 1596.52 336.37" stroke="url(#paint23_linear_613_9771)" stroke-width="0.629032" stroke-miterlimit="10"/>
<path d="M33.2568 744.088C173.254 579.08 97.6756 428.117 344.157 287.014C406.17 251.513 475.931 197.166 552.142 169.371C614.494 146.631 678.727 139.259 722.871 147.813C769.858 156.918 785.053 179.956 796.249 212.343C807.146 243.867 799.337 290.724 782.775 336.649C767.052 380.248 720.28 481.969 775.321 491.944C800.053 496.338 851.982 492.263 966.737 428.891C1081.65 365.431 1146.71 308.918 1246 294.207C1344.51 279.612 1387.32 308.797 1434.41 343.572C1456.61 359.972 1468.84 381.648 1490.01 395.384C1497.82 400.457 1509.25 400.025 1521.41 397.634C1554.84 391.191 1581.26 365.207 1594.46 343.655" stroke="url(#paint24_linear_613_9771)" stroke-width="0.612903" stroke-miterlimit="10"/>
<path d="M47.4219 743.508C193.541 573.323 113.167 413.22 369.507 272.913C430.73 239.403 499.108 189.749 572.821 164.942C634.664 144.129 698.052 138.739 740.013 149.615C784.952 161.263 796.497 187.29 804.037 221.139C811.241 253.483 802.033 299.288 784.616 344.171C768.122 386.673 724.571 482.245 776.085 493.25C799.208 498.106 850.262 495.127 964.606 435.304C1079.86 375.004 1142.52 320.613 1242.84 303.158C1339.55 286.332 1389.92 311.773 1437.52 346.087C1460.54 362.683 1473.05 385.009 1494.66 399.391C1501.95 404.241 1512.47 404.351 1524.01 402.319C1555.81 396.847 1580.62 371.489 1592.39 350.941" stroke="url(#paint25_linear_613_9771)" stroke-width="0.596774" stroke-miterlimit="10"/>
<path d="M61.5869 742.928C213.829 567.566 128.617 397.752 394.858 258.812C455.305 227.267 522.285 182.378 593.501 160.51C654.834 141.676 717.374 138.236 757.154 151.416C800.043 165.627 808.009 194.578 811.825 229.933C815.401 263.056 804.73 307.856 786.456 351.691C769.193 393.102 728.862 482.521 776.849 494.557C798.362 499.874 848.543 498.011 962.476 441.716C1078.07 384.599 1138.34 332.398 1239.68 312.108C1334.6 293.104 1392.52 314.737 1440.63 348.6C1464.46 365.377 1477.26 388.321 1499.32 403.395C1506.08 408.018 1515.68 408.676 1526.61 407.004C1556.78 402.502 1579.97 377.771 1590.33 358.227" stroke="url(#paint26_linear_613_9771)" stroke-width="0.580645" stroke-miterlimit="10"/>
<path d="M75.7529 742.349C234.117 561.809 144.029 381.686 420.209 244.711C479.9 215.106 545.462 175.059 614.181 156.08C675.007 139.281 736.694 137.753 774.296 153.218C815.131 170.013 819.598 201.911 819.614 238.729C819.629 272.673 807.429 316.431 788.298 359.213C770.265 399.538 733.155 482.797 777.613 495.863C797.518 501.642 846.824 500.917 960.346 448.129C1076.28 394.218 1134.18 344.28 1236.53 321.057C1329.67 299.926 1395.12 317.693 1443.74 351.115C1468.39 368.06 1481.49 391.576 1503.98 407.401C1510.22 411.792 1518.9 413 1529.21 411.688C1557.75 408.157 1579.33 384.053 1588.26 365.512" stroke="url(#paint27_linear_613_9771)" stroke-width="0.564516" stroke-miterlimit="10"/>
<path d="M89.918 741.768C254.404 556.051 159.405 364.998 445.559 230.609C504.514 202.921 568.636 167.79 634.86 151.65C695.178 136.949 756.007 137.289 791.437 155.019C830.213 174.422 831.235 209.36 827.402 247.525C823.9 282.402 810.127 325.011 790.139 366.734C771.337 405.979 737.446 483.074 778.377 497.169C796.673 503.41 845.103 503.842 958.215 454.541C1074.49 403.86 1130.03 356.261 1233.37 330.008C1324.75 306.795 1397.71 320.639 1446.85 353.629C1472.32 370.728 1485.72 394.758 1508.63 411.406C1514.35 415.562 1522.11 417.325 1531.81 416.372C1558.72 413.813 1578.68 390.335 1586.2 372.798" stroke="url(#paint28_linear_613_9771)" stroke-width="0.548387" stroke-miterlimit="10"/>
<path d="M104.084 741.188C274.692 550.293 174.753 347.665 470.91 216.507C529.15 190.715 591.806 160.574 655.541 147.218C715.349 134.685 775.314 136.848 808.579 156.82C845.286 178.857 842.881 216.938 835.192 256.319C828.175 292.253 812.827 333.597 791.98 374.255C772.41 412.424 741.738 483.349 779.142 498.475C795.828 505.178 843.383 506.788 956.085 460.954C1072.7 413.526 1125.9 368.346 1230.22 338.957C1319.85 313.708 1400.3 323.576 1449.96 356.142C1476.25 373.381 1489.98 397.847 1513.29 415.41C1518.49 419.33 1525.33 421.649 1534.41 421.056C1559.69 419.468 1578.04 396.618 1584.13 380.084" stroke="url(#paint29_linear_613_9771)" stroke-width="0.532258" stroke-miterlimit="10"/>
<path d="M118.249 740.608C294.979 544.536 190.076 329.663 496.26 202.405C553.807 178.487 614.969 153.413 676.22 142.788C735.516 132.502 794.609 136.429 825.72 158.621C860.347 183.32 854.504 224.61 842.98 265.115C832.43 302.196 815.547 342.234 793.821 381.776C773.501 418.918 746.03 483.624 779.906 499.78C794.983 506.945 841.686 510.037 953.955 467.366C1070.94 423.512 1121.78 380.538 1227.06 347.907C1314.96 320.663 1402.89 326.505 1453.07 358.656C1480.18 376.023 1494.27 400.817 1517.94 419.416C1522.63 423.096 1528.55 425.974 1537.01 425.741C1560.66 425.124 1577.39 402.899 1582.07 387.368" stroke="url(#paint30_linear_613_9771)" stroke-width="0.516129" stroke-miterlimit="10"/>
<path d="M132.414 740.028C315.267 538.779 205.38 310.97 521.611 188.305C578.488 166.242 638.121 146.307 696.899 138.356C755.677 130.406 813.89 136.032 842.862 160.423C875.393 187.809 866.096 232.332 850.768 273.911C836.657 312.188 818.224 350.784 795.662 389.297C774.553 425.33 750.321 483.901 780.669 501.087C794.137 508.713 839.934 512.741 951.824 473.778C1069.12 432.933 1117.69 392.842 1223.9 356.858C1310.09 327.657 1405.47 329.427 1456.18 361.17C1484.12 378.651 1498.6 403.627 1522.6 423.421C1526.77 426.86 1531.76 430.299 1539.61 430.425C1561.63 430.779 1576.74 409.181 1580.01 394.655" stroke="url(#paint31_linear_613_9771)" stroke-width="0.5" stroke-miterlimit="10"/>
</g>
<defs>
<linearGradient id="paint0_linear_613_9771" x1="1477.06" y1="-18.7213" x2="-510.05" y2="153.62" gradientUnits="userSpaceOnUse">
<stop stop-color="#EEB3CF"/>
<stop offset="0.5" stop-color="#88D0EE"/>
<stop offset="1" stop-color="#A3D4BC"/>
</linearGradient>
<linearGradient id="paint1_linear_613_9771" x1="1475.04" y1="-9.95162" x2="-495.021" y2="160.912" gradientUnits="userSpaceOnUse">
<stop stop-color="#EEB3CF"/>
<stop offset="0.5" stop-color="#88D0EE"/>
<stop offset="1" stop-color="#A3D4BC"/>
</linearGradient>
<linearGradient id="paint2_linear_613_9771" x1="1473.02" y1="-1.2233" x2="-480.181" y2="168.178" gradientUnits="userSpaceOnUse">
<stop stop-color="#EEB3CF"/>
<stop offset="0.5" stop-color="#88D0EE"/>
<stop offset="1" stop-color="#A3D4BC"/>
</linearGradient>
<linearGradient id="paint3_linear_613_9771" x1="1471" y1="7.4584" x2="-465.336" y2="175.397" gradientUnits="userSpaceOnUse">
<stop stop-color="#EEB3CF"/>
<stop offset="0.5" stop-color="#88D0EE"/>
<stop offset="1" stop-color="#A3D4BC"/>
</linearGradient>
<linearGradient id="paint4_linear_613_9771" x1="1468.97" y1="16.0834" x2="-450.495" y2="182.559" gradientUnits="userSpaceOnUse">
<stop stop-color="#EEB3CF"/>
<stop offset="0.5" stop-color="#88D0EE"/>
<stop offset="1" stop-color="#A3D4BC"/>
</linearGradient>
<linearGradient id="paint5_linear_613_9771" x1="1466.93" y1="24.5758" x2="-435.673" y2="189.589" gradientUnits="userSpaceOnUse">
<stop stop-color="#EEB3CF"/>
<stop offset="0.5" stop-color="#88D0EE"/>
<stop offset="1" stop-color="#A3D4BC"/>
</linearGradient>
<linearGradient id="paint6_linear_613_9771" x1="1464.9" y1="33.092" x2="-420.856" y2="196.643" gradientUnits="userSpaceOnUse">
<stop stop-color="#EEB3CF"/>
<stop offset="0.5" stop-color="#88D0EE"/>
<stop offset="1" stop-color="#A3D4BC"/>
</linearGradient>
<linearGradient id="paint7_linear_613_9771" x1="1462.85" y1="41.4576" x2="-406.056" y2="203.547" gradientUnits="userSpaceOnUse">
<stop stop-color="#EEB3CF"/>
<stop offset="0.5" stop-color="#88D0EE"/>
<stop offset="1" stop-color="#A3D4BC"/>
</linearGradient>
<linearGradient id="paint8_linear_613_9771" x1="1460.78" y1="49.6911" x2="-391.273" y2="210.32" gradientUnits="userSpaceOnUse">
<stop stop-color="#EEB3CF"/>
<stop offset="0.5" stop-color="#88D0EE"/>
<stop offset="1" stop-color="#A3D4BC"/>
</linearGradient>
<linearGradient id="paint9_linear_613_9771" x1="1458.71" y1="57.7349" x2="-376.511" y2="216.903" gradientUnits="userSpaceOnUse">
<stop stop-color="#EEB3CF"/>
<stop offset="0.5" stop-color="#88D0EE"/>
<stop offset="1" stop-color="#A3D4BC"/>
</linearGradient>
<linearGradient id="paint10_linear_613_9771" x1="1456.59" y1="65.3738" x2="-361.787" y2="223.082" gradientUnits="userSpaceOnUse">
<stop stop-color="#EEB3CF"/>
<stop offset="0.5" stop-color="#88D0EE"/>
<stop offset="1" stop-color="#A3D4BC"/>
</linearGradient>
<linearGradient id="paint11_linear_613_9771" x1="1454.44" y1="72.5676" x2="-347.105" y2="228.816" gradientUnits="userSpaceOnUse">
<stop stop-color="#EEB3CF"/>
<stop offset="0.5" stop-color="#88D0EE"/>
<stop offset="1" stop-color="#A3D4BC"/>
</linearGradient>
<linearGradient id="paint12_linear_613_9771" x1="1452.28" y1="79.5825" x2="-332.44" y2="234.371" gradientUnits="userSpaceOnUse">
<stop stop-color="#EEB3CF"/>
<stop offset="0.5" stop-color="#88D0EE"/>
<stop offset="1" stop-color="#A3D4BC"/>
</linearGradient>
<linearGradient id="paint13_linear_613_9771" x1="1450.09" y1="86.4183" x2="-317.794" y2="239.747" gradientUnits="userSpaceOnUse">
<stop stop-color="#EEB3CF"/>
<stop offset="0.5" stop-color="#88D0EE"/>
<stop offset="1" stop-color="#A3D4BC"/>
</linearGradient>
<linearGradient id="paint14_linear_613_9771" x1="1447.9" y1="93.0676" x2="-303.163" y2="244.937" gradientUnits="userSpaceOnUse">
<stop stop-color="#EEB3CF"/>
<stop offset="0.5" stop-color="#88D0EE"/>
<stop offset="1" stop-color="#A3D4BC"/>
</linearGradient>
<linearGradient id="paint15_linear_613_9771" x1="1445.68" y1="99.5351" x2="-288.551" y2="249.945" gradientUnits="userSpaceOnUse">
<stop stop-color="#EEB3CF"/>
<stop offset="0.5" stop-color="#88D0EE"/>
<stop offset="1" stop-color="#A3D4BC"/>
</linearGradient>
<linearGradient id="paint16_linear_613_9771" x1="1443.45" y1="105.827" x2="-273.956" y2="254.778" gradientUnits="userSpaceOnUse">
<stop stop-color="#EEB3CF"/>
<stop offset="0.5" stop-color="#88D0EE"/>
<stop offset="1" stop-color="#A3D4BC"/>
</linearGradient>
<linearGradient id="paint17_linear_613_9771" x1="1441.21" y1="111.953" x2="-259.374" y2="259.444" gradientUnits="userSpaceOnUse">
<stop stop-color="#EEB3CF"/>
<stop offset="0.5" stop-color="#88D0EE"/>
<stop offset="1" stop-color="#A3D4BC"/>
</linearGradient>
<linearGradient id="paint18_linear_613_9771" x1="1438.95" y1="117.919" x2="-244.809" y2="263.952" gradientUnits="userSpaceOnUse">
<stop stop-color="#EEB3CF"/>
<stop offset="0.5" stop-color="#88D0EE"/>
<stop offset="1" stop-color="#A3D4BC"/>
</linearGradient>
<linearGradient id="paint19_linear_613_9771" x1="1436.69" y1="123.736" x2="-230.256" y2="268.309" gradientUnits="userSpaceOnUse">
<stop stop-color="#EEB3CF"/>
<stop offset="0.5" stop-color="#88D0EE"/>
<stop offset="1" stop-color="#A3D4BC"/>
</linearGradient>
<linearGradient id="paint20_linear_613_9771" x1="1434.39" y1="129.253" x2="-215.73" y2="272.367" gradientUnits="userSpaceOnUse">
<stop stop-color="#EEB3CF"/>
<stop offset="0.5" stop-color="#88D0EE"/>
<stop offset="1" stop-color="#A3D4BC"/>
</linearGradient>
<linearGradient id="paint21_linear_613_9771" x1="1432.11" y1="134.955" x2="-201.189" y2="276.611" gradientUnits="userSpaceOnUse">
<stop stop-color="#EEB3CF"/>
<stop offset="0.5" stop-color="#88D0EE"/>
<stop offset="1" stop-color="#A3D4BC"/>
</linearGradient>
<linearGradient id="paint22_linear_613_9771" x1="1429.81" y1="140.368" x2="-186.672" y2="280.565" gradientUnits="userSpaceOnUse">
<stop stop-color="#EEB3CF"/>
<stop offset="0.5" stop-color="#88D0EE"/>
<stop offset="1" stop-color="#A3D4BC"/>
</linearGradient>
<linearGradient id="paint23_linear_613_9771" x1="1427.5" y1="145.655" x2="-172.168" y2="284.394" gradientUnits="userSpaceOnUse">
<stop stop-color="#EEB3CF"/>
<stop offset="0.5" stop-color="#88D0EE"/>
<stop offset="1" stop-color="#A3D4BC"/>
</linearGradient>
<linearGradient id="paint24_linear_613_9771" x1="1425.18" y1="150.813" x2="-157.675" y2="288.094" gradientUnits="userSpaceOnUse">
<stop stop-color="#EEB3CF"/>
<stop offset="0.5" stop-color="#88D0EE"/>
<stop offset="1" stop-color="#A3D4BC"/>
</linearGradient>
<linearGradient id="paint25_linear_613_9771" x1="1422.84" y1="155.841" x2="-143.194" y2="291.663" gradientUnits="userSpaceOnUse">
<stop stop-color="#EEB3CF"/>
<stop offset="0.5" stop-color="#88D0EE"/>
<stop offset="1" stop-color="#A3D4BC"/>
</linearGradient>
<linearGradient id="paint26_linear_613_9771" x1="1420.5" y1="160.737" x2="-128.724" y2="295.1" gradientUnits="userSpaceOnUse">
<stop stop-color="#EEB3CF"/>
<stop offset="0.5" stop-color="#88D0EE"/>
<stop offset="1" stop-color="#A3D4BC"/>
</linearGradient>
<linearGradient id="paint27_linear_613_9771" x1="1418.14" y1="165.468" x2="-114.269" y2="298.374" gradientUnits="userSpaceOnUse">
<stop stop-color="#EEB3CF"/>
<stop offset="0.5" stop-color="#88D0EE"/>
<stop offset="1" stop-color="#A3D4BC"/>
</linearGradient>
<linearGradient id="paint28_linear_613_9771" x1="1415.77" y1="169.966" x2="-99.8342" y2="301.414" gradientUnits="userSpaceOnUse">
<stop stop-color="#EEB3CF"/>
<stop offset="0.5" stop-color="#88D0EE"/>
<stop offset="1" stop-color="#A3D4BC"/>
</linearGradient>
<linearGradient id="paint29_linear_613_9771" x1="1413.36" y1="174.108" x2="-85.43" y2="304.099" gradientUnits="userSpaceOnUse">
<stop stop-color="#EEB3CF"/>
<stop offset="0.5" stop-color="#88D0EE"/>
<stop offset="1" stop-color="#A3D4BC"/>
</linearGradient>
<linearGradient id="paint30_linear_613_9771" x1="1410.91" y1="177.672" x2="-71.077" y2="306.205" gradientUnits="userSpaceOnUse">
<stop stop-color="#EEB3CF"/>
<stop offset="0.5" stop-color="#88D0EE"/>
<stop offset="1" stop-color="#A3D4BC"/>
</linearGradient>
<linearGradient id="paint31_linear_613_9771" x1="1408.38" y1="180.321" x2="-56.8036" y2="307.396" gradientUnits="userSpaceOnUse">
<stop stop-color="#EEB3CF"/>
<stop offset="0.5" stop-color="#88D0EE"/>
<stop offset="1" stop-color="#A3D4BC"/>
</linearGradient>
</defs>
</svg>
