<svg width="20" height="21" viewBox="0 0 20 21" fill="none" xmlns="http://www.w3.org/2000/svg">
<path d="M11.9449 20.4831V13.3029H13.899C14.047 12.3578 14.1923 11.4309 14.3411 10.4806H11.3816C11.3766 10.4041 11.3696 10.3458 11.3695 10.2878C11.3687 9.7155 11.3671 9.14326 11.3694 8.57098C11.3728 7.73289 11.8464 7.18087 12.6755 7.1159C13.2713 7.06921 13.8723 7.08923 14.471 7.07977C14.5581 7.07839 14.6453 7.07928 14.7475 7.07928V4.59832C13.5656 4.4614 12.3848 4.26242 11.1996 4.5617C9.7718 4.92224 8.82129 5.95901 8.62896 7.41815C8.54934 8.02221 8.5611 8.63886 8.54302 9.25018C8.53131 9.64657 8.54083 10.0435 8.54083 10.465H6.27831C6.27831 10.9513 6.27831 11.4133 6.27831 11.8752C6.27831 12.3393 6.27831 12.8036 6.27831 13.2927H8.52722V20.4767C4.28213 19.9184 0.0334806 16.2557 0.00017746 10.5485C-0.0320249 5.03 4.32271 0.7087 9.56506 0.491879C15.1825 0.259545 19.5896 4.57317 19.9684 9.69647C20.4281 15.9141 15.7896 19.7716 11.9449 20.4831Z" fill="#666666"/>
</svg>
