<svg width="21" height="20" viewBox="0 0 21 20" fill="none" xmlns="http://www.w3.org/2000/svg">
<path fill-rule="evenodd" clip-rule="evenodd" d="M7.54346 0H13.5299C13.5542 0.0031887 13.5784 0.00689868 13.6026 0.0106087L13.6026 0.0106091C13.6541 0.0184819 13.7055 0.0263549 13.7572 0.0292473C13.9397 0.0394561 14.1223 0.0484178 14.3049 0.0573796C14.6428 0.0739646 14.9807 0.0905497 15.318 0.115039C15.8854 0.156236 16.438 0.279166 16.9726 0.473806C18.3235 0.965612 19.3126 1.85901 19.9223 3.15968C20.28 3.92281 20.4375 4.73727 20.4956 5.57355C20.5008 5.64766 20.5106 5.7213 20.5204 5.795L20.5204 5.79504C20.525 5.8294 20.5296 5.86377 20.5337 5.8982V13.9451C20.5299 13.9751 20.5254 14.0051 20.5209 14.035L20.5209 14.035C20.5112 14.0998 20.5015 14.1646 20.4985 14.2298C20.4707 14.8359 20.3892 15.434 20.2192 16.0173C19.7803 17.5223 18.8686 18.6385 17.4524 19.3271C16.7049 19.6905 15.9024 19.861 15.0781 19.914C14.389 19.9582 13.6978 19.9744 13.0073 19.9905C12.5047 20.0022 12.0018 20.0005 11.4991 19.9988L11.3646 19.9983C10.9704 19.997 10.5761 19.9979 10.1819 19.9988C8.84228 20.0017 7.50263 20.0046 6.16419 19.9237C5.51127 19.8843 4.86955 19.7816 4.25031 19.5679C2.70559 19.0347 1.62988 18.0113 1.03772 16.4862C0.72751 15.6872 0.62098 14.8507 0.588016 14.0031C0.561467 13.3205 0.541086 12.6374 0.54285 11.9543C0.54426 11.4086 0.541357 10.8629 0.538455 10.3171C0.530109 8.74787 0.521762 7.17855 0.615909 5.6106C0.65268 4.99821 0.750476 4.3967 0.935978 3.81092C1.33349 2.55563 2.09128 1.57753 3.22138 0.899353C4.09396 0.375718 5.0611 0.153371 6.0661 0.0818923C6.34993 0.0617058 6.63451 0.0524795 6.91912 0.0432526C7.07103 0.0383275 7.22295 0.0334023 7.37476 0.02681C7.41323 0.0251395 7.45145 0.0175827 7.48966 0.0100259L7.48966 0.0100256L7.48967 0.0100246C7.50759 0.0064806 7.52551 0.00293664 7.54346 0ZM18.769 10.0279H18.7851C18.7799 9.67917 18.7752 9.33041 18.7704 8.98166V8.98161C18.759 8.13964 18.7475 7.29766 18.7295 6.45585C18.7165 5.85125 18.6819 5.24714 18.5378 4.65519C18.3386 3.83701 17.932 3.15168 17.2497 2.64347C16.7137 2.24422 16.095 2.05588 15.4443 1.9542C14.8955 1.86845 14.3406 1.85018 13.7876 1.84404L13.4433 1.84019C11.1334 1.81427 8.82327 1.78834 6.51386 1.87621C5.94602 1.89782 5.38417 1.96687 4.84296 2.15162C3.78924 2.51132 3.06879 3.2107 2.69873 4.26279C2.52908 4.74512 2.44574 5.24586 2.42444 5.75342C2.38925 6.59197 2.3591 7.4315 2.35492 8.27064C2.34769 9.72179 2.35383 11.173 2.37091 12.6241C2.37872 13.2871 2.41474 13.9502 2.4588 14.6119C2.49357 15.1339 2.6198 15.6402 2.84497 16.1148C3.29367 17.0605 4.0415 17.6499 5.04413 17.931C5.60693 18.0888 6.18427 18.1365 6.76398 18.1557C7.46095 18.1788 8.15849 18.1994 8.85572 18.1981C9.33622 18.1973 9.81676 18.1995 10.2973 18.2016C11.8113 18.2085 13.3253 18.2154 14.8382 18.127C15.3081 18.0995 15.7719 18.033 16.2199 17.8862C17.261 17.5449 17.9898 16.8703 18.3857 15.8447C18.5702 15.3667 18.6653 14.8675 18.6876 14.3604C18.7288 13.426 18.7479 12.4903 18.7671 11.555L18.7672 11.5507C18.7743 11.2012 18.7725 10.8515 18.7706 10.5018C18.7698 10.3438 18.769 10.1859 18.769 10.0279ZM5.40497 9.99721C5.42785 7.05743 7.81666 4.8695 10.5437 4.8648C13.3785 4.85992 15.6947 7.17048 15.6995 9.99624C15.7042 12.7174 13.5187 15.1353 10.5544 15.1374C7.71335 15.1395 5.4228 12.8652 5.40497 9.99721ZM7.22083 10.005C7.206 11.8497 8.7473 13.3313 10.548 13.3333C12.3833 13.3354 13.893 11.8295 13.8914 9.9977C13.8899 8.18774 12.4043 6.67391 10.5604 6.66985C8.73674 6.66583 7.20206 8.16301 7.22083 10.005ZM17.1 4.67518C17.106 3.99936 16.5828 3.46898 15.9078 3.46678C15.2436 3.46462 14.7091 3.98902 14.7039 4.6474C14.6987 5.31483 15.2344 5.85781 15.8995 5.85921C16.5626 5.8606 17.0941 5.33647 17.1 4.67518Z" fill="#666666"/>
</svg>
