<svg width="117" height="117" viewBox="0 0 117 117" fill="none" xmlns="http://www.w3.org/2000/svg">
<path d="M43.0144 13.6322L40.8969 6.68782L41.2508 6.57991L43.2721 13.2086L46.5243 12.2169L46.6205 12.5326L43.0144 13.6322Z" fill="#666666"/>
<path d="M51.5681 11.7538C50.4975 11.8966 49.9074 11.3297 49.7262 9.97174L49.2778 6.61152L49.6346 6.56391L50.0777 9.88448C50.2311 11.0343 50.672 11.5404 51.5541 11.4227C52.1984 11.3367 52.6378 10.925 53.179 10.0659L52.6578 6.1605L53.0147 6.11289L53.7117 11.3366L53.4044 11.3776L53.2457 10.4908L53.2259 10.4934C52.7813 11.1682 52.2916 11.6572 51.5681 11.7538Z" fill="#666666"/>
<path d="M58.0251 11.0471L58.4058 5.79088L58.705 5.81255L58.7042 6.65469L58.7241 6.65614C59.2426 6.14225 59.8813 5.76741 60.4598 5.80931C61.3176 5.87143 61.7047 6.34062 61.8266 7.01118C62.4941 6.37774 63.1129 6.00146 63.7113 6.04481C64.7386 6.11921 65.2203 6.8058 65.122 8.16225L64.8771 11.5434L64.5281 11.5181L64.7693 8.18683C64.8531 7.02986 64.4954 6.43246 63.6476 6.37105C63.1289 6.33349 62.585 6.64501 61.9168 7.28842L61.6257 11.3079L61.2766 11.2826L61.5179 7.95134C61.6017 6.79437 61.2538 6.19768 60.4061 6.13628C59.8974 6.09944 59.3236 6.40879 58.6753 7.05365L58.3842 11.0731L58.0251 11.0471Z" fill="#666666"/>
<path d="M70.9 13.1074C69.6187 12.7511 68.854 11.4695 69.3148 9.81234C69.7756 8.15521 71.1193 7.42862 72.2465 7.74204C73.422 8.06885 73.9308 9.11332 73.5129 10.6163C73.4834 10.7223 73.4539 10.8283 73.3972 10.9578L69.6782 9.92377C69.3059 11.263 69.813 12.4627 71.0077 12.7948C71.5858 12.9556 72.0702 12.8931 72.5333 12.7208L72.6044 13.0624C72.1547 13.1864 71.6515 13.3164 70.9 13.1074ZM69.7666 9.60583L73.1676 10.5515C73.5507 9.17372 73.112 8.32518 72.1581 8.05998C71.2525 7.80817 70.2289 8.35391 69.7666 9.60583Z" fill="#666666"/>
<path d="M90.3248 23.9942L95.4742 18.8766L98.2093 21.6286L97.9752 21.8612L95.501 19.3716L93.3518 21.5075L95.4384 23.607L95.2114 23.8326L93.1248 21.7331L90.5856 24.2567L90.3248 23.9942Z" fill="#666666"/>
<path d="M95.2258 29.4383L99.4429 26.2778L99.6228 26.5179L98.8666 27.1596L98.8786 27.1756C99.6006 27.0719 100.291 27.1921 100.668 27.6963C100.776 27.8403 100.85 27.9723 100.886 28.1703L100.568 28.2962C100.522 28.1182 100.484 28.0342 100.358 27.8661C100.076 27.49 99.4326 27.2478 98.3545 27.5434L95.4417 29.7264L95.2258 29.4383Z" fill="#666666"/>
<path d="M98.8102 35.0872C98.4152 34.3686 98.4548 33.548 99.3311 33.0663C100.356 32.5027 101.354 33.1755 102.732 35.1223C103.491 34.7392 104.2 34.0984 103.675 33.1432C103.314 32.4859 102.686 32.1121 102.286 31.9442L102.453 31.6467C102.823 31.8203 103.56 32.2481 103.974 33.0017C104.572 34.0884 103.948 34.8646 103.011 35.38L100.022 37.0226L99.8778 36.7597L100.467 36.3787L100.453 36.3524C99.807 36.0911 99.1473 35.7006 98.8102 35.0872ZM99.1138 34.9545C99.4173 35.5066 99.9547 35.8616 100.804 36.1821L102.46 35.2716C101.138 33.3853 100.298 32.957 99.5181 33.3857C98.8083 33.7759 98.8055 34.3936 99.1138 34.9545Z" fill="#666666"/>
<path d="M99.8938 43.367C99.4597 42.0993 99.7522 41.1324 100.585 40.8472C101.02 40.6982 101.584 40.8327 102.074 41.1829L102.112 41.1699C102.176 40.8626 102.376 40.5827 102.754 40.4531C103.208 40.2976 103.634 40.5218 103.86 40.6875L103.897 40.6746C104.065 40.2684 104.447 39.7783 105.052 39.5709C106.064 39.2242 107.071 39.7251 107.398 40.6806C107.495 40.9645 107.507 41.2142 107.499 41.3755L108.069 43.0406L107.757 43.1475L107.349 41.9555C107.175 42.406 106.793 42.8013 106.225 42.9957C105.232 43.3359 104.2 42.8541 103.869 41.8892C103.772 41.6054 103.744 41.2451 103.808 40.9694C103.551 40.8039 103.243 40.6768 102.902 40.7934C102.524 40.923 102.283 41.2381 102.545 42.0044L102.924 43.1113C103.3 44.2087 103.122 44.83 102.356 45.0924C101.514 45.3808 100.373 44.7672 99.8938 43.367ZM104.182 41.7823C104.431 42.5107 105.244 42.9405 106.105 42.6456C106.994 42.3411 107.342 41.535 107.086 40.7876C106.833 40.0496 106.074 39.6226 105.175 39.9304C104.314 40.2253 103.935 41.0632 104.182 41.7823ZM100.203 43.2822C100.611 44.4743 101.545 44.9789 102.198 44.7554C102.785 44.5545 102.869 44.0605 102.6 43.2752L102.211 42.14C102.189 42.0737 102.117 41.8024 102.089 41.5053C101.589 41.1268 101.105 41.0707 100.736 41.197C100.074 41.4238 99.8305 42.1943 100.203 43.2822Z" fill="#666666"/>
<path d="M103.967 48.3304L109.135 47.2952L109.194 47.5893L108.235 47.8426L108.239 47.8622C108.935 48.0797 109.506 48.4855 109.63 49.1032C109.665 49.2797 109.675 49.4307 109.622 49.6249L109.281 49.6014C109.316 49.421 109.318 49.3288 109.277 49.1229C109.184 48.6621 108.708 48.166 107.607 47.9683L104.038 48.6834L103.967 48.3304Z" fill="#666666"/>
<path d="M104.77 54.9768C104.723 54.1581 105.113 53.4347 106.111 53.3777C107.279 53.311 107.889 54.3479 108.294 56.6986C109.144 56.6801 110.06 56.4074 109.998 55.3192C109.955 54.5704 109.55 53.9625 109.261 53.6385L109.54 53.4422C109.799 53.758 110.28 54.4617 110.329 55.3204C110.4 56.5583 109.503 56.9902 108.434 57.0512L105.03 57.2456L105.013 56.9461L105.709 56.8563L105.707 56.8263C105.237 56.3123 104.81 55.6756 104.77 54.9768ZM105.101 54.9879C105.137 55.6169 105.469 56.1688 106.098 56.8241L107.985 56.7163C107.604 54.4443 107.031 53.6958 106.142 53.7465C105.334 53.7927 105.065 54.3489 105.101 54.9879Z" fill="#666666"/>
<path d="M104.919 61.4984L110.156 62.0872L110.123 62.3853L109.281 62.3511L109.279 62.3709C109.765 62.969 110.121 63.5625 110.04 64.2879C109.919 65.3612 109.216 65.7953 107.865 65.6434L104.496 65.2647L104.536 64.907L107.855 65.2801C109.008 65.4097 109.616 65.1057 109.716 64.2113C109.789 63.5654 109.495 63.0493 108.884 62.3064L104.879 61.8562L104.919 61.4984Z" fill="#666666"/>
<path d="M102.965 71.3381C103.331 70.049 104.581 69.3433 106.255 69.8183C107.957 70.3013 108.629 71.6352 108.282 72.857C108.086 73.5497 107.64 73.9118 107.227 74.1584L107.04 73.8662C107.453 73.6195 107.817 73.2865 107.965 72.767C108.27 71.6895 107.546 70.5796 106.151 70.1838C104.766 69.7908 103.607 70.2833 103.28 71.4378C103.121 71.9957 103.252 72.5628 103.487 73.0143L103.18 73.1454C102.925 72.6156 102.779 71.9923 102.965 71.3381Z" fill="#666666"/>
<path d="M100.444 77.9819C100.998 76.7731 102.385 76.2211 103.948 76.9385C105.511 77.6559 106.016 79.0978 105.528 80.1611C105.019 81.2699 103.907 81.6069 102.489 80.9563C102.39 80.9104 102.29 80.8645 102.171 80.7879L103.781 77.2797C102.517 76.6999 101.252 77.0107 100.735 78.1377C100.485 78.683 100.47 79.1713 100.567 79.6558L100.218 79.6719C100.167 79.2082 100.118 78.6908 100.444 77.9819ZM104.081 77.4173L102.608 80.6256C103.908 81.2221 104.815 80.9233 105.228 80.0235C105.62 79.1692 105.243 78.072 104.081 77.4173Z" fill="#666666"/>
<path d="M92.2105 96.8081C91.8583 97.1193 91.322 97.0862 91.0107 96.734C90.6995 96.3818 90.7326 95.8454 91.0848 95.5342C91.437 95.223 91.9734 95.2561 92.2846 95.6083C92.5958 95.9604 92.5627 96.4968 92.2105 96.8081Z" fill="#666666"/>
<path d="M73.6649 102.42L75.8731 109.336L75.5207 109.448L73.4128 102.847L70.1739 103.881L70.0735 103.567L73.6649 102.42Z" fill="#666666"/>
<path d="M65.1745 104.407C66.2429 104.249 66.841 104.807 67.0412 106.163L67.5368 109.516L67.1807 109.569L66.691 106.255C66.5214 105.107 66.0735 104.608 65.193 104.738C64.55 104.833 64.1165 105.251 63.5875 106.117L64.1635 110.015L63.8073 110.067L63.0369 104.854L63.3436 104.809L63.5147 105.693L63.5345 105.69C63.9696 105.009 64.4523 104.514 65.1745 104.407Z" fill="#666666"/>
<path d="M58.7122 105.204L58.4041 110.465L58.1046 110.447L58.0938 109.605L58.0738 109.604C57.5625 110.125 56.929 110.509 56.35 110.475C55.4914 110.424 55.0979 109.961 54.9668 109.292C54.3081 109.934 53.6945 110.319 53.0955 110.284C52.0673 110.224 51.5762 109.544 51.6558 108.186L51.854 104.802L52.2034 104.822L52.0081 108.157C51.9402 109.315 52.3062 109.907 53.1548 109.957C53.6739 109.987 54.2135 109.668 54.8728 109.016L55.1084 104.993L55.4578 105.013L55.2625 108.347C55.1947 109.505 55.5507 110.097 56.3992 110.147C56.9083 110.177 57.4779 109.86 58.1172 109.206L58.3529 105.183L58.7122 105.204Z" fill="#666666"/>
<path d="M45.8039 103.319C47.09 103.658 47.8718 104.929 47.4334 106.592C46.9951 108.255 45.6612 109 44.5299 108.702C43.3501 108.391 42.8273 107.353 43.2249 105.845C43.2529 105.738 43.281 105.632 43.336 105.502L47.0685 106.486C47.4228 105.141 46.8995 103.949 45.7004 103.633C45.1203 103.48 44.6367 103.549 44.176 103.727L44.1003 103.387C44.5482 103.257 45.0497 103.12 45.8039 103.319ZM46.9844 106.805L43.571 105.905C43.2065 107.288 43.6567 108.13 44.614 108.383C45.5229 108.622 46.5391 108.063 46.9844 106.805Z" fill="#666666"/>
<path d="M26.2393 92.6995L21.1604 97.8872L18.3879 95.1729L18.6188 94.9371L21.1269 97.3926L23.2466 95.2274L21.1315 93.1567L21.3553 92.9281L23.4705 94.9988L25.9749 92.4406L26.2393 92.6995Z" fill="#666666"/>
<path d="M21.2676 87.3293L17.0948 90.5482L16.9116 90.3106L17.6588 89.6584L17.6466 89.6426C16.9261 89.7564 16.2345 89.6457 15.8497 89.1469C15.7398 89.0044 15.664 88.8734 15.6253 88.6759L15.9416 88.5456C15.99 88.723 16.0291 88.8065 16.1574 88.9727C16.4445 89.3449 17.0917 89.5781 18.1656 89.2675L21.0477 87.0442L21.2676 87.3293Z" fill="#666666"/>
<path d="M17.595 81.7122C17.9996 82.4255 17.9709 83.2465 17.101 83.7398C16.0833 84.317 15.077 83.6577 13.673 81.7294C12.9188 82.1226 12.2184 82.7728 12.7561 83.7209C13.1261 84.3733 13.7588 84.7387 14.1614 84.9013L13.9979 85.2009C13.6264 85.0323 12.8835 84.6144 12.4592 83.8663C11.8475 82.7877 12.4603 82.0033 13.391 81.4754L16.3571 79.7931L16.5051 80.0541L15.9209 80.4429L15.9357 80.469C16.5848 80.7216 17.2497 81.1033 17.595 81.7122ZM17.2932 81.8489C16.9824 81.3009 16.4402 80.9531 15.5866 80.644L13.9426 81.5764C15.2898 83.445 16.1356 83.862 16.9098 83.4229C17.6144 83.0233 17.6089 82.4056 17.2932 81.8489Z" fill="#666666"/>
<path d="M16.3841 73.4031C16.8593 74.656 16.5984 75.632 15.7755 75.944C15.3454 76.1071 14.7773 75.991 14.2763 75.6569L14.2389 75.6711C14.1851 75.9803 13.9942 76.2666 13.6202 76.4084C13.1714 76.5786 12.7387 76.3684 12.5075 76.21L12.4701 76.2242C12.316 76.6356 11.9503 77.1379 11.3519 77.3648C10.3514 77.7442 9.3291 77.2763 8.97098 76.3319C8.8646 76.0514 8.84496 75.8022 8.84787 75.6407L8.22382 73.995L8.53238 73.878L8.97915 75.0561C9.13781 74.6003 9.50733 74.1928 10.0683 73.98C11.0501 73.6077 12.097 74.0556 12.4586 75.0094C12.565 75.2899 12.605 75.649 12.5498 75.9266C12.8125 76.0837 13.1243 76.2007 13.4609 76.0731C13.8349 75.9313 14.0655 75.6085 13.7783 74.8512L13.3634 73.7572C12.9521 72.6725 13.1102 72.0458 13.8675 71.7586C14.6997 71.443 15.8594 72.0193 16.3841 73.4031ZM12.1501 75.1264C11.877 74.4064 11.0504 74.0033 10.1995 74.326C9.32061 74.6593 8.99942 75.4762 9.27954 76.2149C9.5561 76.9442 10.3289 77.3463 11.2172 77.0095C12.068 76.6868 12.4195 75.837 12.1501 75.1264ZM16.0778 73.4979C15.6311 72.3197 14.6813 71.8457 14.0361 72.0904C13.4564 72.3102 13.388 72.8067 13.6823 73.5828L14.1078 74.7048C14.1326 74.7703 14.2132 75.0392 14.2506 75.3351C14.7622 75.6973 15.2481 75.7376 15.6127 75.5993C16.2673 75.3511 16.4856 74.5732 16.0778 73.4979Z" fill="#666666"/>
<path d="M12.2623 68.5391L7.10928 69.6435L7.04641 69.3501L8.00185 69.084L7.99766 69.0644C7.29852 68.8563 6.7223 68.4582 6.59028 67.8422C6.55255 67.6662 6.54067 67.5154 6.59095 67.3205L6.93249 67.3394C6.89967 67.5203 6.89897 67.6124 6.94298 67.8178C7.04148 68.2773 7.52481 68.7669 8.62764 68.9499L12.1868 68.187L12.2623 68.5391Z" fill="#666666"/>
<path d="M11.3729 61.9265C11.4311 62.7444 11.0519 63.4732 10.0544 63.5442C8.88737 63.6273 8.26278 62.599 7.82515 60.2542C6.97517 60.2846 6.06314 60.5701 6.14054 61.6574C6.19381 62.4055 6.60761 63.0076 6.90108 63.3276L6.62459 63.5277C6.36176 63.2156 5.87103 62.5187 5.80996 61.6608C5.7219 60.424 6.61259 59.9796 7.67989 59.9036L11.0813 59.6614L11.1026 59.9607L10.4079 60.0603L10.41 60.0902C10.8873 60.5976 11.3232 61.2282 11.3729 61.9265ZM11.0416 61.92C10.9968 61.2916 10.6571 60.7443 10.0196 60.0979L8.13437 60.2322C8.54636 62.4986 9.13042 63.239 10.0182 63.1758C10.8261 63.1183 11.087 62.5583 11.0416 61.92Z" fill="#666666"/>
<path d="M11.1359 55.3632L5.89165 54.8424L5.9213 54.5439L6.76312 54.5672L6.76509 54.5473C6.27115 53.9556 5.90756 53.3668 5.9797 52.6404C6.08642 51.5656 6.78364 51.1224 8.13698 51.2568L11.5104 51.5918L11.4748 51.95L8.15116 51.6199C6.99684 51.5053 6.39307 51.8172 6.30413 52.7128C6.23989 53.3596 6.54075 53.8718 7.16116 54.6067L11.1714 55.005L11.1359 55.3632Z" fill="#666666"/>
<path d="M12.9547 45.5265C12.6064 46.8205 11.366 47.5429 9.68579 47.0907C7.97662 46.6307 7.28722 45.306 7.6173 44.0796C7.80443 43.3844 8.24525 43.0163 8.65487 42.7641L8.84616 43.0537C8.43653 43.3059 8.07631 43.6439 7.93596 44.1654C7.64487 45.2469 8.38438 46.3469 9.78455 46.7238C11.1751 47.098 12.3267 46.5899 12.6386 45.4311C12.7893 44.871 12.6515 44.3058 12.4097 43.8576L12.7154 43.7223C12.9776 44.2486 13.1314 44.8699 12.9547 45.5265Z" fill="#666666"/>
<path d="M15.4011 38.8148C14.8618 40.0306 13.4823 40.6001 11.9101 39.9027C10.3378 39.2052 9.81496 37.7698 10.2894 36.7004C10.7841 35.5852 11.8916 35.2341 13.3176 35.8667C13.4182 35.9113 13.5187 35.9559 13.6386 36.031L12.0733 39.5594C13.3439 40.123 14.6047 39.7962 15.1076 38.6627C15.3509 38.1143 15.3597 37.6259 15.2568 37.1427L15.605 37.1221C15.6622 37.5851 15.7174 38.1018 15.4011 38.8148ZM11.7717 39.4255L13.2031 36.1988C11.896 35.6189 10.9925 35.9292 10.5911 36.8342C10.2099 37.6934 10.6005 38.7857 11.7717 39.4255Z" fill="#666666"/>
<path d="M23.3707 19.9071C23.7187 19.5911 24.2555 19.617 24.5714 19.965C24.8874 20.3129 24.8615 20.8497 24.5135 21.1657C24.1655 21.4816 23.6288 21.4557 23.3128 21.1077C22.9969 20.7598 23.0228 20.223 23.3707 19.9071Z" fill="#666666"/>
</svg>
