<svg width="20" height="21" viewBox="0 0 20 21" fill="none" xmlns="http://www.w3.org/2000/svg">
<path d="M20 8.48835V9.5079C19.9887 9.56636 19.972 9.62431 19.9668 9.68336C19.891 10.5527 19.6539 11.3725 19.2779 12.1502C18.6913 13.3633 17.8425 14.3622 16.9031 15.2803C15.5314 16.6208 14.0249 17.7831 12.4501 18.8459C11.6872 19.3609 10.8932 19.8266 10.1023 20.2944C9.92217 20.4009 9.69992 20.4494 9.49122 20.4781C9.25263 20.5108 9.12383 20.3761 9.12059 20.1207C9.11854 19.9594 9.15387 19.7976 9.1703 19.6358C9.21753 19.1709 9.27524 18.7067 9.30603 18.2406C9.3254 17.9474 9.18015 17.7286 8.91929 17.6175C8.72818 17.5361 8.52958 17.4682 8.32886 17.4181C7.65375 17.2498 6.96142 17.1406 6.30235 16.9213C4.3601 16.2749 2.68823 15.1789 1.47309 13.4402C-0.10527 11.1818 -0.453262 8.72485 0.613669 6.12944C1.39334 4.23281 2.76625 2.88509 4.48329 1.91579C6.75007 0.636166 9.17479 0.249027 11.7142 0.613552C13.8171 0.915419 15.7071 1.74104 17.317 3.2065C18.5167 4.29862 19.3794 5.62616 19.7808 7.25051C19.8809 7.65582 19.9283 8.07536 20 8.48835ZM11.8823 9.65492C11.8083 9.55546 11.7684 9.50427 11.731 9.45114C11.1149 8.5754 10.4997 7.69895 9.88282 6.82377C9.69873 6.56258 9.497 6.47834 9.2665 6.55853C9.02049 6.64413 8.90431 6.83275 8.904 7.1632C8.90274 8.49527 8.90334 9.82734 8.90383 11.1594C8.90385 11.2205 8.90508 11.2821 8.91317 11.3424C8.94706 11.595 9.148 11.7854 9.39046 11.7981C9.71449 11.815 9.94043 11.5828 9.94316 11.2087C9.94861 10.4612 9.94503 9.71353 9.94518 8.96594C9.94519 8.89516 9.94518 8.82438 9.94518 8.7536C10.0344 8.80833 10.0811 8.87211 10.1265 8.93692C10.7293 9.79762 11.3267 10.6625 11.9401 11.5148C12.0293 11.6388 12.1844 11.7542 12.3266 11.7847C12.6785 11.8604 12.9321 11.5919 12.9326 11.1816C12.9344 9.84274 12.9336 8.50387 12.9323 7.165C12.9322 7.09105 12.9269 7.01476 12.9092 6.94359C12.8442 6.68271 12.625 6.51635 12.3754 6.53094C12.1376 6.54484 11.9333 6.73352 11.8915 6.98573C11.8794 7.05864 11.8826 7.13473 11.8826 7.20937C11.882 8.00377 11.8823 8.79817 11.8823 9.65492ZM14.6923 7.63038C15.1775 7.63038 15.6386 7.63304 16.0997 7.62949C16.4301 7.62694 16.6587 7.40199 16.6628 7.08563C16.6669 6.76425 16.431 6.53124 16.0928 6.53006C15.4686 6.5279 14.8445 6.52803 14.2203 6.52992C13.845 6.53105 13.6364 6.74299 13.6358 7.13056C13.6337 8.4893 13.6337 9.84806 13.6359 11.2068C13.6365 11.586 13.841 11.7988 14.2049 11.8008C14.8291 11.8042 15.4532 11.8035 16.0774 11.8011C16.4277 11.7997 16.6574 11.5848 16.6621 11.2627C16.6668 10.9334 16.4331 10.7063 16.0736 10.702C15.6835 10.6972 15.2934 10.7008 14.9033 10.7008C14.8347 10.7007 14.7661 10.7007 14.701 10.7007V9.71688C15.1603 9.71688 15.6017 9.71789 16.0431 9.71658C16.4233 9.71545 16.6598 9.50582 16.6624 9.17099C16.665 8.82959 16.4226 8.61486 16.0319 8.614C15.6873 8.61324 15.3427 8.61384 14.9981 8.61383C14.8969 8.61383 14.7956 8.61383 14.6923 8.61383V7.63038ZM4.63304 10.701C4.63304 10.5997 4.63304 10.5266 4.63304 10.4534C4.63303 9.38073 4.6332 8.30803 4.63267 7.23534C4.63263 7.15396 4.63406 7.0717 4.6238 6.99139C4.59187 6.74143 4.38899 6.54784 4.14862 6.53134C3.90064 6.51433 3.6648 6.68659 3.61073 6.93653C3.58951 7.03459 3.58698 7.13857 3.58686 7.23986C3.58537 8.52303 3.58558 9.80619 3.58651 11.0894C3.58658 11.1773 3.58848 11.2665 3.60228 11.353C3.64178 11.6003 3.82869 11.7921 4.06777 11.795C4.7628 11.8034 5.4581 11.8047 6.15305 11.7932C6.41132 11.7889 6.60619 11.552 6.61643 11.2815C6.62909 10.9471 6.40165 10.7079 6.04863 10.7027C5.58803 10.6959 5.12728 10.701 4.63304 10.701ZM8.14899 9.18165C8.14899 8.52917 8.1495 7.8767 8.14881 7.22423C8.14834 6.78193 7.96257 6.53328 7.63276 6.53042C7.29519 6.52748 7.10622 6.77873 7.10606 7.23399C7.10561 8.52534 7.10579 9.8167 7.10619 11.1081C7.10621 11.1759 7.10656 11.2442 7.11349 11.3116C7.14445 11.6128 7.37298 11.8148 7.66129 11.7986C7.95144 11.7823 8.14532 11.5513 8.14751 11.2002C8.15169 10.5274 8.14872 9.85451 8.14899 9.18165Z" fill="#666666"/>
</svg>
