<svg width="30" height="30" viewBox="0 0 30 30" fill="none" xmlns="http://www.w3.org/2000/svg">
<path d="M25 13.0054V14.025C24.9887 14.0834 24.972 14.1414 24.9668 14.2004C24.891 15.0697 24.6539 15.8896 24.2779 16.6672C23.6913 17.8804 22.8425 18.8793 21.9031 19.7974C20.5314 21.1379 19.0249 22.3002 17.4501 23.363C16.6872 23.878 15.8932 24.3437 15.1023 24.8115C14.9222 24.918 14.6999 24.9665 14.4912 24.9952C14.2526 25.0279 14.1238 24.8932 14.1206 24.6378C14.1185 24.4765 14.1539 24.3147 14.1703 24.1529C14.2175 23.688 14.2752 23.2238 14.306 22.7577C14.3254 22.4645 14.1802 22.2457 13.9193 22.1346C13.7282 22.0532 13.5296 21.9853 13.3289 21.9352C12.6537 21.7669 11.9614 21.6577 11.3023 21.4384C9.3601 20.792 7.68823 19.696 6.47309 17.9573C4.89473 15.6989 4.54674 13.2419 5.61367 10.6465C6.39334 8.7499 7.76625 7.40218 9.48329 6.43288C11.7501 5.15326 14.1748 4.76612 16.7142 5.13064C18.8171 5.43251 20.7071 6.25813 22.317 7.72359C23.5167 8.81571 24.3794 10.1432 24.7808 11.7676C24.8809 12.1729 24.9283 12.5924 25 13.0054ZM16.8823 14.172C16.8083 14.0725 16.7684 14.0214 16.731 13.9682C16.1149 13.0925 15.4997 12.216 14.8828 11.3409C14.6987 11.0797 14.497 10.9954 14.2665 11.0756C14.0205 11.1612 13.9043 11.3498 13.904 11.6803C13.9027 13.0124 13.9033 14.3444 13.9038 15.6765C13.9039 15.7375 13.9051 15.7992 13.9132 15.8595C13.9471 16.1121 14.148 16.3025 14.3905 16.3152C14.7145 16.3321 14.9404 16.0999 14.9432 15.7258C14.9486 14.9782 14.945 14.2306 14.9452 13.483C14.9452 13.4123 14.9452 13.3415 14.9452 13.2707C15.0344 13.3254 15.0811 13.3892 15.1265 13.454C15.7293 14.3147 16.3267 15.1796 16.9401 16.0319C17.0293 16.1559 17.1844 16.2713 17.3266 16.3018C17.6785 16.3774 17.9321 16.109 17.9326 15.6987C17.9344 14.3598 17.9336 13.021 17.9323 11.6821C17.9322 11.6081 17.9269 11.5318 17.9092 11.4607C17.8442 11.1998 17.625 11.0334 17.3754 11.048C17.1376 11.0619 16.9333 11.2506 16.8915 11.5028C16.8794 11.5757 16.8826 11.6518 16.8826 11.7265C16.882 12.5209 16.8823 13.3153 16.8823 14.172ZM19.6923 12.1475C20.1775 12.1475 20.6386 12.1501 21.0997 12.1466C21.4301 12.144 21.6587 11.9191 21.6628 11.6027C21.6669 11.2813 21.431 11.0483 21.0928 11.0472C20.4686 11.045 19.8445 11.0451 19.2203 11.047C18.845 11.0481 18.6364 11.2601 18.6358 11.6476C18.6337 13.0064 18.6337 14.3652 18.6359 15.7239C18.6365 16.1031 18.841 16.3159 19.2049 16.3179C19.8291 16.3213 20.4532 16.3206 21.0774 16.3182C21.4277 16.3168 21.6574 16.1019 21.6621 15.7797C21.6668 15.4505 21.4331 15.2234 21.0736 15.2191C20.6835 15.2143 20.2934 15.2179 19.9033 15.2178C19.8347 15.2178 19.7661 15.2178 19.701 15.2178V14.234C20.1603 14.234 20.6017 14.235 21.0431 14.2337C21.4233 14.2325 21.6598 14.0229 21.6624 13.6881C21.665 13.3467 21.4226 13.132 21.0319 13.1311C20.6873 13.1303 20.3427 13.1309 19.9981 13.1309C19.8969 13.1309 19.7956 13.1309 19.6923 13.1309V12.1475ZM9.63304 15.2181C9.63304 15.1168 9.63304 15.0436 9.63304 14.9705C9.63303 13.8978 9.6332 12.8251 9.63267 11.7524C9.63263 11.6711 9.63406 11.5888 9.6238 11.5085C9.59187 11.2585 9.38899 11.0649 9.14862 11.0484C8.90064 11.0314 8.6648 11.2037 8.61073 11.4536C8.58951 11.5517 8.58698 11.6557 8.58686 11.757C8.58537 13.0401 8.58558 14.3233 8.58651 15.6064C8.58658 15.6944 8.58848 15.7836 8.60228 15.8701C8.64178 16.1174 8.82869 16.3092 9.06777 16.3121C9.7628 16.3205 10.4581 16.3218 11.1531 16.3103C11.4113 16.306 11.6062 16.0691 11.6164 15.7986C11.6291 15.4642 11.4017 15.225 11.0486 15.2198C10.588 15.213 10.1273 15.2181 9.63304 15.2181ZM13.149 13.6987C13.149 13.0463 13.1495 12.3938 13.1488 11.7413C13.1483 11.299 12.9626 11.0504 12.6328 11.0475C12.2952 11.0446 12.1062 11.2958 12.1061 11.7511C12.1056 13.0424 12.1058 14.3338 12.1062 15.6251C12.1062 15.693 12.1066 15.7613 12.1135 15.8287C12.1444 16.1299 12.373 16.3319 12.6613 16.3157C12.9514 16.2994 13.1453 16.0684 13.1475 15.7173C13.1517 15.0445 13.1487 14.3716 13.149 13.6987Z" fill="#666666"/>
</svg>
