<svg width="25" height="18" viewBox="0 0 25 18" fill="none" xmlns="http://www.w3.org/2000/svg">
<path d="M24.5 15.8549C24.3599 16.1982 24.2694 16.5743 24.0693 16.8777C23.6741 17.4769 23.0673 17.742 22.3582 17.7749C22.3105 17.7771 22.2626 17.7763 22.2147 17.7763C15.574 17.7763 8.93332 17.7757 2.29269 17.777C1.53808 17.7772 0.908186 17.5184 0.44059 16.908C0.137718 16.5125 0.00340581 16.0577 0.00310385 15.5654C0.000763602 11.2757 -0.00329606 6.986 0.00485704 2.69633C0.00727278 1.39834 0.953554 0.486043 2.26719 0.484603C5.01758 0.481496 7.76789 0.483616 10.5183 0.483616C14.4166 0.483616 18.3149 0.483366 22.2132 0.483745C23.1487 0.483821 23.8593 0.873017 24.2811 1.72569C24.3854 1.93653 24.4287 2.17774 24.5 2.40503V15.8549ZM2.47727 1.9302C2.54914 2.00834 2.58878 2.05474 2.63181 2.09779C5.30527 4.76813 7.97692 7.44029 10.6539 10.1071C11.6143 11.0641 12.8969 11.0562 13.8623 10.0934C16.5267 7.43664 19.188 4.77661 21.85 2.11741C21.9016 2.0658 21.9475 2.00849 22.0171 1.9302H2.47727ZM2.6143 16.3148H21.8792C19.905 14.2928 17.8868 12.2256 15.8406 10.1297C15.4875 10.4912 15.1662 10.834 14.8301 11.1615C13.8151 12.1504 12.6188 12.4768 11.2484 12.1116C10.6171 11.9434 10.0901 11.5904 9.63427 11.1265C9.3166 10.8032 9.00067 10.4781 8.65801 10.1272C6.61038 12.2236 4.59195 14.2901 2.6143 16.3148ZM7.48389 9.1711C5.4937 7.14109 3.47022 5.07712 1.45565 3.02224V15.3365C3.52118 13.224 5.5408 11.1584 7.48389 9.1711ZM23.0556 3.00936L23.0031 2.97524C20.9756 5.04239 18.9481 7.10954 16.9127 9.18488C18.9314 11.1986 20.9772 13.2395 23.0556 15.3129V3.00936Z" fill="#666666"/>
</svg>
