<svg width="16" height="21" viewBox="0 0 16 21" fill="none" xmlns="http://www.w3.org/2000/svg">
<path d="M7.61142 20.864C7.22238 20.3345 6.83681 19.8025 6.44378 19.276C4.85685 17.1503 3.27298 15.0222 1.67744 12.9029C0.53475 11.3851 -0.0744007 9.68514 0.00727519 7.78629C0.138432 4.73511 1.55042 2.40389 4.23564 0.964573C8.37374 -1.25359 13.3882 0.490856 15.272 4.7943C16.4783 7.55026 16.1789 10.2382 14.4225 12.6803C12.4779 15.3843 10.4464 18.0257 8.45317 20.6948C8.4132 20.7484 8.38053 20.8074 8.34448 20.864H7.61142ZM7.98148 5.34772C6.52866 5.34643 5.33565 6.53158 5.33096 7.98073C5.32621 9.44434 6.51426 10.6403 7.97427 10.6417C9.4276 10.643 10.6198 9.45856 10.6249 8.00819C10.6301 6.54438 9.44239 5.349 7.98148 5.34772Z" fill="#666666"/>
</svg>
