<svg width="19" height="20" viewBox="0 0 19 20" fill="none" xmlns="http://www.w3.org/2000/svg">
<path d="M14.3359 19.5204C13.872 19.4204 13.4018 19.343 12.9454 19.2156C12.0045 18.953 11.1285 18.531 10.2856 18.0439C7.89503 16.6626 5.85207 14.8645 4.03923 12.7955C2.86318 11.4531 1.83583 10.0071 1.04307 8.40334C0.555379 7.41666 0.171408 6.39244 0.040131 5.29162C-0.042308 4.60048 -0.0197203 3.91356 0.319286 3.28119C0.426008 3.08209 0.564972 2.89181 0.722232 2.72966C1.27434 2.16034 1.84638 1.61029 2.40067 1.04301C3.16962 0.256102 4.36348 0.336973 5.08958 1.04444C5.95499 1.88767 6.80625 2.74559 7.65397 3.60671C8.40089 4.36546 8.40652 5.50234 7.66505 6.19437C7.50663 6.34224 7.30374 6.45948 7.10111 6.53947C6.58288 6.74393 6.17395 7.05484 5.9486 7.57703C5.79848 7.92488 5.778 8.27973 5.87615 8.64711C6.15224 9.68072 6.73925 10.5314 7.44461 11.3092C8.1786 12.1187 9.00993 12.8088 9.99865 13.29C10.4342 13.502 10.8826 13.6903 11.3855 13.6247C12.0672 13.5357 12.5861 13.207 12.8558 12.5569C13.0226 12.1545 13.2193 11.7861 13.6028 11.5461C14.3207 11.0967 15.2054 11.1783 15.8392 11.7957C16.7314 12.6646 17.6143 13.5438 18.4814 14.4378C19.1919 15.1704 19.1654 16.3384 18.4448 17.0715C17.8759 17.6504 17.297 18.2197 16.724 18.7947C16.3178 19.2023 15.8184 19.4089 15.2567 19.4851C15.2094 19.4915 15.1635 19.5084 15.1169 19.5204H14.3359Z" fill="#666666"/>
</svg>
