<svg width="59" height="29" viewBox="0 0 59 29" fill="none" xmlns="http://www.w3.org/2000/svg">
<g clip-path="url(#clip0_507_7269)">
<rect width="59" height="29" fill="url(#paint0_linear_507_7269)" fill-opacity="0.3"/>
<path d="M18.304 11.704H19.088V20.44C19.088 21.144 19.296 21.336 20.24 21.336C20.72 21.336 23.104 21.336 23.728 21.336C24.736 21.336 24.88 20.744 24.992 18.04C25.216 18.2 25.536 18.36 25.76 18.408C25.616 21.272 25.344 22.088 23.744 22.088C23.376 22.088 20.592 22.088 20.24 22.088C18.736 22.088 18.304 21.768 18.304 20.408V11.704ZM18.24 8.264L18.752 7.736C20.16 8.68 21.984 10.056 22.928 10.84L22.4 11.448C21.456 10.6 19.632 9.224 18.24 8.264ZM15.728 12.792L16.448 12.984C16.096 14.696 15.456 17.016 14.496 18.424L13.792 18.104C14.752 16.728 15.408 14.456 15.728 12.792ZM25.216 13.336L25.888 13.032C27.072 14.68 28.208 16.872 28.656 18.312L27.92 18.664C27.488 17.192 26.352 14.984 25.216 13.336ZM26.112 8.616L26.864 8.936C24.208 13.992 19.968 18.488 14.288 21.144C14.176 20.968 13.952 20.696 13.776 20.536C19.376 18.024 23.68 13.48 26.112 8.616ZM36.704 9.288H45.584V9.96H36.704V9.288ZM42.096 19.8L42.592 19.336C43.68 19.992 45.008 20.984 45.68 21.64L45.152 22.168C44.496 21.512 43.152 20.504 42.096 19.8ZM39.296 19.368L40.032 19.8C39.056 20.648 37.616 21.608 36.448 22.216C36.336 22.04 36.112 21.8 35.968 21.656C37.12 21.064 38.576 20.136 39.296 19.368ZM36.032 18.424H46.048V19.128H36.032V18.424ZM37.872 13.032H44.208V13.608H37.872V13.032ZM37.856 14.76H44.272V15.352H37.856V14.76ZM37.888 16.536H44.192V17.128H37.888V16.536ZM37.568 11.176H44.464V18.616H43.728V11.816H38.288V18.616H37.568V11.176ZM40.672 7.672L41.504 7.768C41.216 9.048 40.848 10.68 40.512 11.672L39.84 11.56C40.144 10.536 40.512 8.808 40.672 7.672ZM31.488 11.592H36.112V12.328H31.488V11.592ZM33.424 7.816H34.176V18.376H33.424V7.816ZM31.44 19C32.592 18.584 34.32 17.864 36 17.16L36.128 17.848C34.576 18.536 32.976 19.24 31.728 19.784L31.44 19Z" fill="#666666"/>
</g>
<defs>
<linearGradient id="paint0_linear_507_7269" x1="0" y1="29" x2="6.12867" y2="-7.44175" gradientUnits="userSpaceOnUse">
<stop stop-color="#A3D4BC"/>
<stop offset="0.5" stop-color="#88D0EE"/>
<stop offset="1" stop-color="#EEB3CF"/>
</linearGradient>
<clipPath id="clip0_507_7269">
<rect width="59" height="29" rx="14.5" fill="white"/>
</clipPath>
</defs>
</svg>
