<svg width="50" height="50" viewBox="0 0 50 50" fill="none" xmlns="http://www.w3.org/2000/svg">
<path d="M35.3128 29.375C33.473 29.375 31.782 30.0113 30.4471 31.0754L22.1068 25.8627C22.3538 24.7455 22.3538 23.5878 22.1068 22.4705L30.4471 17.2578C31.782 18.322 33.473 18.9583 35.3128 18.9583C39.6275 18.9583 43.1253 15.4605 43.1253 11.1458C43.1253 6.83112 39.6275 3.33331 35.3128 3.33331C30.9981 3.33331 27.5003 6.83112 27.5003 11.1458C27.5003 11.7283 27.5646 12.2957 27.6855 12.8419L19.3452 18.0546C18.0103 16.9905 16.3193 16.3541 14.4795 16.3541C10.1648 16.3541 6.66699 19.8519 6.66699 24.1666C6.66699 28.4813 10.1648 31.9791 14.4795 31.9791C16.3193 31.9791 18.0103 31.3428 19.3452 30.2787L27.6855 35.4914C27.5623 36.0484 27.5002 36.6171 27.5003 37.1875C27.5003 41.5022 30.9981 45 35.3128 45C39.6275 45 43.1253 41.5022 43.1253 37.1875C43.1253 32.8728 39.6275 29.375 35.3128 29.375Z" fill="url(#paint0_linear_1875_5883)"/>
<defs>
<linearGradient id="paint0_linear_1875_5883" x1="6.66699" y1="45" x2="24.9279" y2="-1.69915" gradientUnits="userSpaceOnUse">
<stop stop-color="#A3D4BC"/>
<stop offset="0.5" stop-color="#88D0EE"/>
<stop offset="1" stop-color="#EEB3CF"/>
</linearGradient>
</defs>
</svg>
